<svg xmlns="http://www.w3.org/2000/svg" viewBox="0 0 1000 1000"><title>contact</title><rect width="1000" height="1000" style="fill:#807cca"/><path d="M1000,0H0V1000H623.2c134-53.4,265.9-92.8,376.8-111.1Z" transform="translate(0 0)" style="fill:#7c78c8"/><path d="M1000,0H0V1000H399.1c49.7-37.1,114.6-80.5,185.9-115,96.6-46.7,255.9-90.4,415-110.9Z" transform="translate(0 0)" style="fill:#7773c1"/><path d="M1000,0H0V1000H207.9c46-44.5,125.7-105.6,263.1-178,177.2-93.4,370-156,529-182.4Z" transform="translate(0 0)" style="fill:#726ebd"/><path d="M1000,0H0V966.5C131.4,887.4,300.8,786.7,400,733c119.3-64.7,362.2-188,600-233.4Z" transform="translate(0 0)" style="fill:#6d69b8"/><path d="M1000,0H0V784.6C155.7,722,320.2,632.9,433,575c160.3-82.3,368.4-163,567-199Z" transform="translate(0 0)" style="fill:#6864b2"/><path d="M1000,247.1V0H0V605.4C185.3,547.9,385.5,459.6,500,401,651.2,323.6,831.7,271,1000,247.1Z" transform="translate(0 0)" style="fill:#615daa"/><path d="M1000,0H0V426.7C198.4,387.7,384,303,384,303s294.6-129.9,616-200.3Z" transform="translate(0 0)" style="fill:#5a56a2"/><path d="M889,0H0V250q39.75-6.9,81-16C286.2,188.8,554,86,763,32,807,20.6,849.2,9.9,889,0Z" transform="translate(0 0)" style="fill:#534f9c"/><path d="M0,73.5C135,60.9,295,27.8,414.9,0H0Z" transform="translate(0 0)" style="fill:#4a4693"/></svg>