<svg xmlns="http://www.w3.org/2000/svg" viewBox="0 0 1000 1000"><title>Login</title><rect width="1000" height="1000" style="fill:#807cca"/><path d="M1000,111.06C889.07,92.82,757.19,53.39,623.24,0H0V1000H1000Z" style="fill:#7c78c8"/><path d="M1000,225.91C840.91,205.45,681.56,161.74,585,115,513.68,80.48,448.77,37.08,399.15,0H0V1000H1000Z" style="fill:#7773c1"/><path d="M1000,360.38C841,334,648.21,271.43,471,178,333.64,105.58,253.91,44.51,207.94,0H0V1000H1000Z" style="fill:#726ebd"/><path d="M1000,500.39C762.17,455,519.32,331.66,400,267,300.84,213.27,131.42,112.59,0,33.46V1000H1000Z" style="fill:#6d69b8"/><path d="M1000,624C801.39,588,593.26,507.28,433,425,320.2,367.09,155.66,278,0,215.4V1000H1000Z" style="fill:#6864b2"/><path d="M500,599C385.5,540.42,185.33,452.1,0,394.61V1000H1000V752.86C831.65,729,651.23,676.37,500,599Z" style="fill:#615daa"/><path d="M1000,897.28C678.63,826.89,384,697,384,697S198.36,612.33,0,573.31V1000H1000Z" style="fill:#5a56a2"/><path d="M763,968C554,914,286.17,811.22,81,766q-41.23-9.09-81-16v250H889C849.19,990.08,807.05,979.38,763,968Z" style="fill:#534f9c"/><path d="M0,1000H414.91C295,972.19,135,939.06,0,926.46Z" style="fill:#4a4693"/></svg>