<svg xmlns="http://www.w3.org/2000/svg" viewBox="0 0 1000 1000"><title>password</title><rect width="1000" height="1000" style="fill:#807cca"/><path d="M0,888.9c110.9,18.3,242.8,57.7,376.8,111.1H1000V0H0Z" style="fill:#7c78c8"/><path d="M0,774.1C159.1,794.6,318.4,838.3,415,885c71.3,34.5,136.2,77.9,185.9,115H1000V0H0Z" style="fill:#7773c1"/><path d="M0,639.6C159,666,351.8,728.6,529,822c137.4,72.4,217.1,133.5,263.1,178H1000V0H0Z" style="fill:#726ebd"/><path d="M0,499.6C237.8,545,480.7,668.3,600,733c99.2,53.7,268.6,154.4,400,233.5V0H0Z" style="fill:#6d69b8"/><path d="M0,376c198.6,36,406.7,116.7,567,199,112.8,57.9,277.3,147,433,209.6V0H0Z" style="fill:#6864b2"/><path d="M500,401c114.5,58.6,314.7,146.9,500,204.4V0H0V247.1C168.3,271,348.8,323.6,500,401Z" style="fill:#615daa"/><path d="M0,102.7C321.4,173.1,616,303,616,303s185.6,84.7,384,123.7V0H0Z" style="fill:#5a56a2"/><path d="M237,32C446,86,713.8,188.8,919,234q41.25,9.15,81,16V0H111C150.8,9.9,193,20.6,237,32Z" style="fill:#534f9c"/><path d="M1000,0H585.1C705,27.8,865,60.9,1000,73.5Z" style="fill:#4a4693"/></svg>