<?xml version="1.0" encoding="utf-8"?>
<!-- Generator: Adobe Illustrator 23.0.3, SVG Export Plug-In . SVG Version: 6.00 Build 0)  -->
<svg version="1.1" id="Layer_1" xmlns="http://www.w3.org/2000/svg" xmlns:xlink="http://www.w3.org/1999/xlink" x="0px" y="0px"
	 viewBox="0 0 1000 1000" style="enable-background:new 0 0 1000 1000;" xml:space="preserve">
<style type="text/css">
	.st0{fill:#807CCA;}
	.st1{fill:#7C78C8;}
	.st2{fill:#7773C1;}
	.st3{fill:#726EBD;}
	.st4{fill:#6D69B8;}
	.st5{fill:#6864B2;}
	.st6{fill:#615DAA;}
	.st7{fill:#5A56A2;}
	.st8{fill:#534F9C;}
	.st9{fill:#4A4693;}
</style>
<title>Login</title>
<rect y="0" class="st0" width="1000" height="1000"/>
<path class="st1" d="M0,1000h1000V0L376.8,0C242.8,53.4,110.9,92.8,0,111.1L0,1000z"/>
<path class="st2" d="M0,1000h1000V0L600.9,0C551.2,37.1,486.3,80.5,415,115c-96.6,46.7-255.9,90.4-415,110.9L0,1000z"/>
<path class="st3" d="M0,1000h1000V0L792.1,0c-46,44.5-125.7,105.6-263.1,178C351.8,271.4,159,334,0,360.4L0,1000z"/>
<path class="st4" d="M0,1000h1000V33.5C868.6,112.6,699.2,213.3,600,267C480.7,331.7,237.8,455,0,500.4L0,1000z"/>
<path class="st5" d="M0,1000h1000V215.4C844.3,278,679.8,367.1,567,425C406.7,507.3,198.6,588,0,624L0,1000z"/>
<path class="st6" d="M0,752.9L0,1000h1000V394.6C814.7,452.1,614.5,540.4,500,599C348.8,676.4,168.3,729,0,752.9z"/>
<path class="st7" d="M0,1000h1000V573.3C801.6,612.3,616,697,616,697S321.4,826.9,0,897.3L0,1000z"/>
<path class="st8" d="M111,1000h889V750c-26.5,4.6-53.5,9.9-81,16c-205.2,45.2-473,148-682,202C193,979.4,150.8,990.1,111,1000z"/>
<path class="st9" d="M1000,926.5c-135,12.6-295,45.7-414.9,73.5H1000V926.5z"/>
</svg>
